<svg width="40" height="40" viewBox="0 0 40 40" fill="none" xmlns="http://www.w3.org/2000/svg">
  <title>BudgetLens Favicon</title>
  <path d="M20 40C31.0457 40 40 31.0457 40 20C40 8.9543 31.0457 0 20 0C8.9543 0 0 8.9543 0 20C0 31.0457 8.9543 40 20 40Z" fill="#323E4B"/>
  <path d="M20 28C24.4183 28 28 24.4183 28 20C28 15.5817 24.4183 12 20 12C15.5817 12 12 15.5817 12 20C12 24.4183 15.5817 28 20 28Z" fill="white"/>
  <path d="M23 17C23 18.6569 21.6569 20 20 20C18.3431 20 17 18.6569 17 17C17 15.3431 18.3431 14 20 14C21.6569 14 23 15.3431 23 17Z" fill="#FFCF03"/>
</svg>